<svg width="180" height="40" viewBox="0 0 180 40" fill="none" xmlns="http://www.w3.org/2000/svg">
  <!-- Graduation cap -->
  <path d="M35 15L25 10L15 15L25 20L35 15Z" fill="#73ebda"/>
  <path d="M25 20V30M25 30L20 28M25 30L30 28" stroke="#73ebda" stroke-width="2"/>
  <rect x="21" y="9" width="8" height="2" fill="#73ebda"/>
  
  <!-- SurfAcademy Text -->
  <path d="M45 15L48 25L51 15H53L56 25L59 15H61L57 28H55L52 19L49 28H47L43 15H45Z" fill="#73ebda"/>
  <path d="M63 15H65V28H63V15Z" fill="#73ebda"/>
  <path d="M68 15H70V16.5C70.5 15.5 72 14.8 73.5 14.8C76.5 14.8 79 17 79 21.5C79 26 76.5 28.2 73.5 28.2C72 28.2 70.5 27.5 70 26.5V32H68V15ZM73 16.5C70.5 16.5 70 18.5 70 21.5C70 24.5 70.5 26.5 73 26.5C75.5 26.5 77 24.5 77 21.5C77 18.5 75.5 16.5 73 16.5Z" fill="#73ebda"/>
  <path d="M80 21.5C80 17 82.5 14.8 85.5 14.8C88.5 14.8 91 17 91 21.5C91 26 88.5 28.2 85.5 28.2C82.5 28.2 80 26 80 21.5ZM89 21.5C89 18.5 87.5 16.5 85.5 16.5C83.5 16.5 82 18.5 82 21.5C82 24.5 83.5 26.5 85.5 26.5C87.5 26.5 89 24.5 89 21.5Z" fill="#73ebda"/>
  <path d="M97 28L92 15H94L98 25.5L102 15H104L99 28H97Z" fill="#73ebda"/>
  <path d="M106 23V15H108V22.5C108 25 109 26.5 111 26.5C113 26.5 114.5 25 114.5 22.5V15H116.5V23C116.5 26.5 114 28.2 111 28.2C108 28.2 106 26.5 106 23Z" fill="#73ebda"/>
  <path d="M119 15H121V16.2C121.5 15.5 122.5 14.8 124 14.8C126.5 14.8 128 16.5 128 19V28H126V19.5C126 17.5 125 16.5 123 16.5C121 16.5 121 18 121 19.5V28H119V15Z" fill="#73ebda"/>
  <path d="M136 24.5L137.5 23C138.5 24.5 140 25.2 141.5 25.2C143 25.2 144 24.5 144 23.2C144 22 143 21.5 141.5 21L140 20.5C138.5 20 137 19 137 17C137 15 139 14 141 14C143 14 144.5 15 145.5 16L144 17.5C143 16.5 142 16 141 16C140 16 139 16.5 139 17.5C139 18.5 140 19 141 19.2L142.5 19.7C144.5 20.3 146 21.2 146 23.5C146 25.8 144 27.2 141.5 27.2C139 27.2 137 26 136 24.5Z" fill="#73ebda"/>
  <path d="M153 27.8V26.2C152.5 27 151 28 149 28C146.5 28 145 26.5 145 24.5C145 22.5 146.5 21 149 21H153V20C153 18 152 17 150 17C148 17 147 18 146.5 19L145 17.5C146 16 147.5 15 150 15C153 15 155 16.5 155 20V27.8H153ZM153 23H149.5C147.5 23 147 24 147 25C147 26 148 26.5 149.5 26.5C151 26.5 153 26 153 24V23Z" fill="#73ebda"/>
  <path d="M157 15H159V16.5C159.5 15.5 161 14.8 162.5 14.8C165.5 14.8 168 17 168 21.5C168 26 165.5 28.2 162.5 28.2C161 28.2 159.5 27.5 159 26.5V32H157V15ZM162 16.5C159.5 16.5 159 18.5 159 21.5C159 24.5 159.5 26.5 162 26.5C164.5 26.5 166 24.5 166 21.5C166 18.5 164.5 16.5 162 16.5Z" fill="#73ebda"/>
  <path d="M170 15H172V16.5C172.5 15.5 174 14.8 175.5 14.8C178.5 14.8 180 16.5 180 19V28H178V19.5C178 17.5 177 16.5 175 16.5C173 16.5 172 18 172 19.5V28H170V15Z" fill="#73ebda"/>
</svg> 